<?xml version="1.0" encoding="UTF-8"?>
<svg id="Laag_2" data-name="Laag 2" xmlns="http://www.w3.org/2000/svg" viewBox="0 0 1618.77 562.1">
  <defs>
    <style>
      .cls-1 {
        fill: #fff;
      }
    </style>
  </defs>
  <g id="Laag_1-2" data-name="Laag 1">
    <g>
      <g>
        <path class="cls-1" d="m684.14,128.44c12.82,0,23.8,3.41,32.95,10.21,9.15,6.81,13.72,15.09,13.72,24.84s-4.48,17.8-13.42,24.54c-8.95,6.74-20.03,10.25-33.25,10.52h-23.44v58.49l11.62-1.6v1.6l-15.02,11.62h-3.21l-16.83-11.62v-122.99l-11.62-4.21v-1.4h58.49Zm0,67.5c6.41,0,11.88-3.17,16.42-9.51,4.54-6.34,6.81-13.99,6.81-22.94s-2.1-16.29-6.31-22.43c-4.21-6.14-9.51-9.55-15.92-10.22h-24.44v65.1h23.44Z"/>
        <path class="cls-1" d="m774.28,187.13l20.23-23.84h.6c.67,0,1.87-.07,3.61-.2h.2c2.94-.13,6.21.67,9.82,2.4,8.14,5.21,12.22,11.69,12.22,19.43,0,4.94-.3,8.78-.9,11.52-.6,2.74-1.37,5.24-2.3,7.51l-2.4.6c.53-1.33.73-4.47.6-9.42-.13-4.94-2.8-9.68-8.01-14.22-4.28-2.94-8.21-4.61-11.82-5.01-3.61-.4-6.21-.4-7.81,0l-14.02,16.23v64.7l11.62-1.4v1.4l-15.02,11.62h-3.21l-13.82-10.22v-86.53l-11.82-4.41v-1.4h32.25v21.23Z"/>
        <path class="cls-1" d="m843.98,171.71l-11.62-4.41v-1.4h32.05v90.94l11.82-1.4v1.4l-15.02,11.62h-3.41l-13.82-10.22v-86.53Zm19.33-37.06c2.6,2.54,3.91,5.61,3.91,9.21s-1.3,6.88-3.91,9.42c-2.6,2.54-5.71,3.81-9.31,3.81s-6.68-1.27-9.21-3.81c-2.54-2.54-3.81-5.67-3.81-9.42s1.27-6.68,3.81-9.21,5.61-3.81,9.21-3.81,6.71,1.27,9.31,3.81Z"/>
        <path class="cls-1" d="m907.08,208.16l-9.01-6.01c-2.54-2-4.44-4.17-5.71-6.51-1.27-2.33-1.9-5.57-1.9-9.71,0-6.28,3.41-11.62,10.21-16.02,6.81-4.41,14.95-6.61,24.44-6.61,6.28,0,12.79,1,19.53,3,6.74,2,12.45,4.74,17.13,8.21l-8.61,26.64c-2.4-10.02-6.04-18.33-10.92-24.94-4.88-6.61-10.58-10.05-17.13-10.32-7.35.27-12.55,4.08-15.62,11.42-1.6,4.14-.47,7.48,3.41,10.02,16.29,11.09,32.12,21.97,47.47,32.65,2.8,2.27,4.84,5.08,6.11,8.41,1.27,3.34,1.9,6.81,1.9,10.42,0,8.95-4.21,16.56-12.62,22.83-8.41,6.28-18.63,9.41-30.65,9.41-17.09,0-30.05-6.01-38.86-18.03l20.83-44.87Zm2.8,2l-10.02,21.63c-2.14,4.68-2.27,9.41-.4,14.22,2.27,6.01,5.71,11.22,10.32,15.62,4.61,4.41,9.71,6.68,15.32,6.81,10.28-.4,17.76-5.21,22.43-14.42,3.61-8.68,1.53-16.09-6.21-22.23-8.15-5.87-18.63-13.09-31.45-21.63Z"/>
        <path class="cls-1" d="m999.22,173.71l18.23-10.42c8.54-.13,16.19.5,22.93,1.9,6.74,1.4,11.72,4.98,14.92,10.72l21.63-12.42c7.74-.13,14.72.33,20.93,1.4,6.21,1.07,11.18,3.64,14.92,7.71,3.74,4.08,5.61,10.79,5.61,20.13v64.3l11.62-1.6v1.6l-15.02,11.62h-3.21l-13.82-10.42v-65.5c0-10.82-1.77-17.96-5.31-21.43-3.54-3.47-7.98-5.21-13.32-5.21h-.2l-22.43,13.02c1.33,3.47,2,7.95,2,13.42v64.3l11.62-1.6v1.6l-14.82,11.62h-3.41l-13.82-10.22v-65.7c0-10.82-1.77-17.96-5.31-21.43-3.54-3.47-7.98-5.21-13.32-5.21l-20.43,11.62v79.32l11.82-1.6v1.6l-15.02,11.62h-3.41l-13.82-10.22v-86.73l-11.62-4.21v-1.4h32.05v7.81Z"/>
        <path class="cls-1" d="m1158.36,170.21c8.08-4.34,16.19-6.51,24.34-6.51,11.22,0,20.83,2.94,28.84,8.81,8.01,5.88,12.02,12.95,12.02,21.23v63.3l11.62-1.6v1.6l-15.02,11.62h-3.21l-13.02-9.01c-7.21,7.88-16.02,11.82-26.44,11.82-6.95,0-13.29-1.04-19.03-3.11-5.74-2.07-10.18-5.91-13.32-11.52-3.14-5.61-4.31-13.55-3.51-23.84l28.44-16.42-28.04-28.04c2.8-7.88,8.24-13.99,16.32-18.33Zm44.77,27.34v-3.81c0-7.61-2-14.09-6.01-19.43-4.01-5.34-8.88-8.01-14.62-8.01-4.41,0-8.21.74-11.42,2.2-3.21,1.47-6.01,3.41-8.41,5.81-4.14,4.41-6.21,9.48-6.21,15.22s2.13,10.82,6.41,15.22l10.22,10.22,30.05-17.43Zm-41.26,27.64c-.54,2.27-.8,4.88-.8,7.81,0,11.22,2.5,19.5,7.51,24.84,5.01,5.34,10.85,8.01,17.53,8.01s12.35-3.27,17.03-9.81v-54.68l-41.26,23.84Z"/>
        <path class="cls-1" d="m1271.43,165.9h23.84v3.21h-23.84v75.92c0,7.88.63,13.32,1.9,16.32,1.27,3,3.57,4.78,6.91,5.31,3.87.54,7.58-1.07,11.12-4.81,3.54-3.74,5.31-7.81,5.31-12.22h3.21c0,5.88-2.24,10.92-6.71,15.12-4.48,4.21-9.58,6.31-15.32,6.31-8.15,0-14.62-2.07-19.43-6.21-4.81-4.14-7.28-10.68-7.41-19.63v-76.12h-11.62v-3.21h11.62l20.43-20.63v20.63Z"/>
        <path class="cls-1" d="m1318.5,171.71l-11.62-4.41v-1.4h32.05v90.94l11.82-1.4v1.4l-15.02,11.62h-3.41l-13.82-10.22v-86.53Zm19.33-37.06c2.6,2.54,3.91,5.61,3.91,9.21s-1.3,6.88-3.91,9.42c-2.6,2.54-5.71,3.81-9.31,3.81s-6.68-1.27-9.21-3.81c-2.54-2.54-3.81-5.67-3.81-9.42s1.27-6.68,3.81-9.21,5.61-3.81,9.21-3.81,6.71,1.27,9.31,3.81Z"/>
        <path class="cls-1" d="m1433.28,267.35c-6.01,2.47-12.35,3.71-19.03,3.71-14.82,0-27.48-5.24-37.96-15.72-10.48-10.48-15.72-23.14-15.72-37.96s5.24-27.47,15.72-37.96c10.48-10.48,23.14-15.72,37.96-15.72,12.29,0,23.17,3.67,32.65,11.02v.2l-4.81,27.84c-5.88-24.44-15.16-36.66-27.84-36.66-10.01,0-18.06,4.98-24.14,14.92-6.08,9.95-9.11,22.07-9.11,36.36s3.04,26.38,9.11,36.25c6.08,9.88,14.12,14.82,24.14,14.82,6.28,0,12.15-1.23,17.63-3.71,5.47-2.47,10.02-6.44,13.62-11.92l2.6,1.8c-3.88,6.01-8.81,10.25-14.82,12.72Z"/>
        <path class="cls-1" d="m732.91,466.15c-8.08,3.27-16.73,4.91-25.94,4.91-13.35,0-25.51-3.27-36.46-9.81-10.95-6.54-19.7-15.29-26.24-26.24-6.54-10.95-9.81-23.1-9.81-36.46s3.27-25.54,9.81-36.56c6.54-11.02,15.29-19.8,26.24-26.34,10.95-6.54,23.1-9.82,36.46-9.82,16.69,0,31.51,5.08,44.47,15.22h-.2l-6.01,34.05c-3.2-13.49-8.25-24.64-15.12-33.45-6.88-8.81-14.59-13.22-23.13-13.22-13.49,0-25.04,6.84-34.65,20.53-9.61,13.69-14.42,30.21-14.42,49.58s4.81,35.89,14.42,49.58c9.61,13.69,21.16,20.53,34.65,20.53,8.54,0,16.73-1.7,24.54-5.11,7.81-3.41,14.12-8.84,18.93-16.33l2.2,1.6c-5.08,8.28-11.65,14.06-19.73,17.33Z"/>
        <path class="cls-1" d="m857.4,379.12c10.55,10.55,15.82,23.24,15.82,38.06s-5.28,27.51-15.82,38.06c-10.55,10.55-23.24,15.82-38.06,15.82s-27.51-5.27-38.06-15.82c-10.55-10.55-15.82-23.24-15.82-38.06s5.27-27.51,15.82-38.06c10.55-10.55,23.24-15.82,38.06-15.82s27.51,5.28,38.06,15.82Zm-38.06-13.02c-9.21,0-17.09,5.01-23.64,15.02-6.54,10.02-9.81,22.03-9.81,36.06s3.27,26.04,9.81,36.05c6.54,10.02,14.42,15.02,23.64,15.02s17.06-5.01,23.54-15.02c6.48-10.01,9.71-22.03,9.71-36.05s-3.24-26.04-9.71-36.06c-6.48-10.01-14.32-15.02-23.54-15.02Z"/>
        <path class="cls-1" d="m896.27,352.88l-11.62-4.41v-1.4h32.05v109.77l11.82-1.6v1.6l-15.02,11.62h-3.41l-13.82-10.22v-105.36Zm43.87-18.83l-11.62-4.41v-1.4h32.05v128.6l11.82-1.6v1.6l-15.02,11.62h-3.41l-13.82-10.22v-124.19Z"/>
        <path class="cls-1" d="m1005.43,431.6c1.87,10.95,5.61,19.83,11.22,26.64,5.61,6.81,12.55,10.22,20.83,10.22,6.28,0,12.15-1.23,17.63-3.71,5.47-2.47,10.02-6.44,13.62-11.92l2.6,1.8c-3.87,6.01-8.81,10.25-14.82,12.72-6.01,2.47-12.35,3.71-19.03,3.71-14.82,0-27.48-5.24-37.96-15.72-10.48-10.48-15.72-23.14-15.72-37.96s5.24-27.47,15.72-37.96,23.14-15.72,37.96-15.72c12.28,0,23.17,3.67,32.65,11.02v.2l-3.81,21.43-60.89,35.25Zm56.29-36.46c-2.94-9.61-6.31-16.86-10.12-21.73-3.81-4.87-8.51-7.31-14.12-7.31-10.02,0-18.06,4.98-24.14,14.92-6.08,9.95-9.11,22.07-9.11,36.36,0,3.61.2,7.15.6,10.62l56.89-32.85Z"/>
        <path class="cls-1" d="m1155.26,467.35c-6.01,2.47-12.35,3.71-19.03,3.71-14.82,0-27.48-5.24-37.96-15.72-10.49-10.48-15.72-23.14-15.72-37.96s5.24-27.47,15.72-37.96c10.48-10.48,23.13-15.72,37.96-15.72,12.28,0,23.17,3.67,32.65,11.02v.2l-4.81,27.84c-5.88-24.44-15.16-36.66-27.84-36.66-10.02,0-18.06,4.98-24.14,14.92-6.08,9.95-9.11,22.07-9.11,36.36s3.04,26.38,9.11,36.25c6.07,9.88,14.12,14.82,24.14,14.82,6.28,0,12.15-1.23,17.63-3.71,5.47-2.47,10.01-6.44,13.62-11.92l2.6,1.8c-3.88,6.01-8.81,10.25-14.82,12.72Z"/>
        <path class="cls-1" d="m1210.55,365.9h23.84v3.21h-23.84v75.92c0,7.88.63,13.32,1.9,16.32,1.27,3,3.57,4.78,6.91,5.31,3.87.54,7.58-1.07,11.12-4.81,3.54-3.74,5.31-7.81,5.31-12.22h3.21c0,5.88-2.24,10.92-6.71,15.12-4.48,4.21-9.58,6.31-15.32,6.31-8.15,0-14.62-2.07-19.43-6.21-4.81-4.14-7.28-10.68-7.41-19.63v-76.12h-11.62v-3.21h11.62l20.43-20.63v20.63Z"/>
        <path class="cls-1" d="m1257.61,371.71l-11.62-4.41v-1.4h32.05v90.94l11.82-1.4v1.4l-15.02,11.62h-3.41l-13.82-10.22v-86.53Zm19.33-37.06c2.6,2.54,3.91,5.61,3.91,9.21s-1.3,6.88-3.91,9.42c-2.6,2.54-5.71,3.81-9.31,3.81s-6.68-1.27-9.21-3.81c-2.54-2.54-3.81-5.67-3.81-9.42s1.27-6.68,3.81-9.21,5.61-3.81,9.21-3.81,6.71,1.27,9.31,3.81Z"/>
        <path class="cls-1" d="m1393.22,379.12c10.55,10.55,15.82,23.24,15.82,38.06s-5.28,27.51-15.82,38.06c-10.55,10.55-23.24,15.82-38.06,15.82s-27.51-5.27-38.06-15.82c-10.55-10.55-15.82-23.24-15.82-38.06s5.27-27.51,15.82-38.06,23.24-15.82,38.06-15.82,27.51,5.28,38.06,15.82Zm-38.06-13.02c-9.21,0-17.1,5.01-23.64,15.02-6.54,10.02-9.81,22.03-9.81,36.06s3.27,26.04,9.81,36.05c6.54,10.02,14.42,15.02,23.64,15.02s17.06-5.01,23.54-15.02c6.48-10.01,9.71-22.03,9.71-36.05s-3.24-26.04-9.71-36.06c-6.48-10.01-14.32-15.02-23.54-15.02Z"/>
        <path class="cls-1" d="m1470.74,363.49h3.61c7.74,0,14.79.47,21.13,1.4,6.34.94,11.42,3.47,15.22,7.61,3.81,4.14,5.71,10.88,5.71,20.23v64.3l11.62-1.6v1.6l-14.82,11.62h-3.41l-13.82-10.42v-65.5c0-8.01-.97-13.89-2.9-17.63-1.94-3.74-4.54-6.21-7.81-7.41-3.27-1.2-6.91-1.8-10.92-1.8h-1.4l-20.43,11.82v79.32l11.82-1.6v1.6l-15.02,11.62h-3.41l-13.82-10.42v-86.53l-11.62-4.21v-1.6h32.05v8.01l18.23-10.42Z"/>
        <path class="cls-1" d="m1557.47,408.16l-9.01-6.01c-2.54-2-4.44-4.17-5.71-6.51-1.27-2.33-1.9-5.57-1.9-9.71,0-6.28,3.41-11.62,10.22-16.02,6.81-4.41,14.95-6.61,24.44-6.61,6.28,0,12.79,1,19.53,3,6.74,2,12.45,4.74,17.13,8.21l-8.61,26.64c-2.4-10.02-6.04-18.33-10.92-24.94-4.88-6.61-10.58-10.05-17.13-10.32-7.35.27-12.55,4.08-15.62,11.42-1.6,4.14-.47,7.48,3.41,10.02,16.29,11.09,32.12,21.97,47.47,32.65,2.8,2.27,4.84,5.08,6.11,8.41,1.27,3.34,1.9,6.81,1.9,10.42,0,8.95-4.21,16.56-12.62,22.83-8.41,6.28-18.63,9.41-30.65,9.41-17.09,0-30.05-6.01-38.86-18.03l20.83-44.87Zm2.8,2l-10.01,21.63c-2.14,4.68-2.27,9.41-.4,14.22,2.27,6.01,5.71,11.22,10.32,15.62,4.61,4.41,9.71,6.68,15.32,6.81,10.28-.4,17.76-5.21,22.43-14.42,3.61-8.68,1.53-16.09-6.21-22.23-8.15-5.87-18.63-13.09-31.45-21.63Z"/>
      </g>
      <g>
        <path class="cls-1" d="m383.49,541.08c-.8.31-1.61.56-2.42.85l-9.69,3.33c-4.46,1.5-10.21,2.98-14.72,4.36-2.46.6-7.5,1.76-9.95,2.37-3.29.86-11.63,2.37-15.04,2.98-4.61.86-10.52,1.44-15.17,2.15-4.89.4-10.36,1.02-15.26,1.27,0,0-10.2.38-10.2.38-114.95,2.38-220.37-66.72-263.13-173.43-1.18-2.65-2.66-6.7-3.61-9.45-2.08-5.37-4.59-13.7-6.23-19.26-.87-2.77-1.78-6.97-2.51-9.8-1.27-4.54-2.23-10.23-3.19-14.83-5.91-31.4-5.99-64.1-.74-95.6C28.93,135.32,99.23,53.19,196.31,20.33c129.62-43.19,270.46,14.09,334.47,134.63C487.16,66.41,399.96,8.27,301.64.8,210.9-6.2,120.3,32.87,63.12,103.78,6.59,172.89-13.81,267.44,9.43,353.67c34.45,130.25,157.69,217.97,292.01,207.59,4.93-.37,10.46-1.06,15.38-1.59,4.7-.79,10.62-1.57,15.25-2.53l10.08-2.12c4.66-1.07,10.29-2.65,14.95-3.87,4.52-1.49,10.24-3.14,14.68-4.75l9.62-3.63c.8-.31,1.61-.59,2.4-.92,3.39-1.51,8.37-3.6,11.77-5.13,3.27-1.49,10.46-5.17,13.81-6.81-3.47,1.53-10.52,4.98-13.99,6.4-3.45,1.36-8.45,3.42-11.89,4.77Z"/>
        <path class="cls-1" d="m308.92,289.1c4.89-15.11-3.39-31.32-18.5-36.21-15.11-4.89-31.32,3.39-36.21,18.5-4.89,15.11,3.39,31.32,18.5,36.21,15.11,4.89,31.32-3.39,36.21-18.5Z"/>
        <polygon class="cls-1" points="358.72 429.54 356.17 449.39 378.92 469.07 376.3 439.1 358.72 429.54"/>
        <polygon class="cls-1" points="431.45 204.92 451.3 207.47 470.98 184.72 441.01 187.34 431.45 204.92"/>
        <polygon class="cls-1" points="186.69 121.8 204.27 131.36 206.82 111.51 184.07 91.83 186.69 121.8"/>
        <polygon class="cls-1" points="131.54 355.98 111.69 353.42 92.01 376.17 121.98 373.56 131.54 355.98"/>
        <polygon class="cls-1" points="75.57 213.82 75.58 213.82 75.57 213.82 75.57 213.82"/>
        <path class="cls-1" d="m708.4,418.71s-.07-.02-.11-.04c-140.44-47.05-263.97-89.06-292.02-102.47,0,0,0,0,0,0h0c-11.27-6.16-21.26-12.03-30.09-17.82,3.13-17.98,1.48-35.98-4.19-52.5l28.95-30.49-41.35,5.54c-10.17-15.13-24.27-27.74-41.41-36.1.99-21.6,4.56-47.34,9.85-78.98-.29.57-.56,1.13-.85,1.7-1.54,3.09-3.05,6.11-4.54,9.06-12,23.78-22.55,43.25-32.82,59.02-18.82-3.3-37.67-1.35-54.81,4.96l-30.26-28.72,5.58,41.67c-14.29,10.07-26.19,23.7-34.19,40.13-17.11-.83-36.85-3.28-60.1-6.91-.01,0,0,0-.01,0-6.31-.78-50.46-12.95-50.46-12.95,0,0,0,0,0,0,0,0,0,0,0,0,12.16,4.12,24.75,8.81,37.69,14.17,5.22,2.17,10.32,4.36,15.3,6.59,19.03,9.82,35.03,18.76,48.38,27.52-3.13,17.98-1.48,35.98,4.19,52.49l-28.95,30.49,41.35-5.54c10.17,15.13,24.27,27.74,41.4,36.09-.85,18.72-3.65,40.54-7.82,66.61-.56,3.5-1.15,7.08-1.75,10.74-.09.55-.18,1.08-.27,1.63,14.26-28.73,26.45-51.68,38.31-69.77,18.78,3.27,37.6,1.32,54.71-4.98l30.26,28.72-5.58-41.67c14.27-10.06,26.17-23.68,34.17-40.08,9.16.42,19.06,1.3,29.85,2.58,36.07,5.23,156.46,43.91,301.47,89.24.04.01.07.02.11.04-.02,0-.04-.01-.05-.02.02,0,.04.01.05.02Zm-336.02-130.05c-30.99-23.66-43.4-47.96-44.41-86.94,30.26,17.88,47.66,51.95,44.41,86.94Zm-136.62-23.25c8.19-25.3,35.34-39.17,60.64-30.97s39.17,35.34,30.97,60.64c-8.19,25.3-35.34,39.17-60.64,30.97-25.3-8.19-39.17-35.34-30.97-60.64Zm54.4-75.97c-23.66,31.24-47.85,43.64-87.17,44.5,17.89-30.37,52.08-47.83,87.17-44.5Zm-99.41,82.39c30.97,23.66,43.39,47.96,44.4,86.92-30.25-17.88-47.65-51.94-44.4-86.92Zm82.4,99.23c23.66-30.98,47.96-43.4,86.93-44.41-17.88,30.25-51.94,47.66-86.93,44.41Z"/>
        <path class="cls-1" d="m108.1,450.39c-1.37-1.38-2.7-2.79-4.03-4.2-46.08-50.32-71.01-119.8-61.93-194.07,9.91-83.6,65.17-157.45,142.06-191.46l4.06-1.83,4.14-1.64c4.73-1.98,11.81-4.45,16.74-6.06,4.1-1.3,8.66-2.52,12.83-3.71,4.03-.89,9-2.19,13.03-2.94,11.46-2.27,23.69-3.73,35.32-4.38,8.12-.33,16.36-.3,24.49,0,1.53.13,9.4.69,11.11.83,105.68,10.11,192.56,88.14,214.68,191.87.72,4.08,1.78,9.16,2.38,13.23l1.2,8.88c.09.74.22,1.48.29,2.22.25,3.23.7,7.92.94,11.17.21,3.13.36,10.19.5,13.45-.11-3.27-.08-10.25-.27-13.46-.14-2.22-.47-6.74-.61-8.96-.16-2.99-1.08-10.35-1.46-13.39-.32-2.56-1-6.31-1.45-8.87-23.04-127.12-137.96-209.14-258.54-200.17-98.78,6.7-189.51,73.58-219.18,177.74-36.45,129.95,38.79,265.17,168.65,302.2,95.13,26.89,197.4-5.89,258.42-83.8-92.17,113.11-260.99,121.61-363.36,17.36Z"/>
      </g>
    </g>
  </g>
</svg>