<?xml version="1.0" encoding="UTF-8"?>
<svg id="Laag_2" data-name="Laag 2" xmlns="http://www.w3.org/2000/svg" viewBox="0 0 884.52 958.22">
  <g id="Laag_1-2" data-name="Laag 1">
    <g>
      <g>
        <path d="m122.04,650.06c11.52,0,21.39,3.06,29.61,9.18,8.22,6.12,12.33,13.56,12.33,22.32s-4.02,15.99-12.06,22.05c-8.04,6.06-18,9.21-29.88,9.45h-21.06v52.56l10.44-1.44v1.44l-13.5,10.44h-2.88l-15.12-10.44v-110.52l-10.44-3.78v-1.26h52.56Zm0,60.66c5.76,0,10.68-2.85,14.76-8.55,4.08-5.7,6.12-12.57,6.12-20.61s-1.89-14.64-5.67-20.16c-3.78-5.52-8.55-8.58-14.31-9.18h-21.96v58.5h21.06Z"/>
        <path d="m203.04,702.8l18.18-21.42h.54c.6,0,1.68-.06,3.24-.18h.18c2.64-.12,5.58.6,8.82,2.16,7.32,4.68,10.98,10.5,10.98,17.46,0,4.44-.27,7.89-.81,10.35-.54,2.46-1.23,4.71-2.07,6.75l-2.16.54c.48-1.2.66-4.02.54-8.46-.12-4.44-2.52-8.7-7.2-12.78-3.84-2.64-7.38-4.14-10.62-4.5-3.24-.36-5.58-.36-7.02,0l-12.6,14.58v58.14l10.44-1.26v1.26l-13.5,10.44h-2.88l-12.42-9.18v-77.76l-10.62-3.96v-1.26h28.98v19.08Z"/>
        <path d="m265.68,688.94l-10.44-3.96v-1.26h28.8v81.72l10.62-1.26v1.26l-13.5,10.44h-3.06l-12.42-9.18v-77.76Zm17.37-33.3c2.34,2.28,3.51,5.04,3.51,8.28s-1.17,6.18-3.51,8.46c-2.34,2.28-5.13,3.42-8.37,3.42s-6-1.14-8.28-3.42c-2.28-2.28-3.42-5.1-3.42-8.46s1.14-6,3.42-8.28c2.28-2.28,5.04-3.42,8.28-3.42s6.03,1.14,8.37,3.42Z"/>
        <path d="m322.38,721.7l-8.1-5.4c-2.28-1.8-3.99-3.75-5.13-5.85-1.14-2.1-1.71-5.01-1.71-8.73,0-5.64,3.06-10.44,9.18-14.4s13.44-5.94,21.96-5.94c5.64,0,11.49.9,17.55,2.7,6.06,1.8,11.19,4.26,15.39,7.38l-7.74,23.94c-2.16-9-5.43-16.47-9.81-22.41-4.38-5.94-9.51-9.03-15.39-9.27-6.6.24-11.28,3.66-14.04,10.26-1.44,3.72-.42,6.72,3.06,9,14.64,9.96,28.86,19.74,42.66,29.34,2.52,2.04,4.35,4.56,5.49,7.56,1.14,3,1.71,6.12,1.71,9.36,0,8.04-3.78,14.88-11.34,20.52-7.56,5.64-16.74,8.46-27.54,8.46-15.36,0-27-5.4-34.92-16.2l18.72-40.32Zm2.52,1.8l-9,19.44c-1.92,4.2-2.04,8.46-.36,12.78,2.04,5.4,5.13,10.08,9.27,14.04,4.14,3.96,8.73,6,13.77,6.12,9.24-.36,15.96-4.68,20.16-12.96,3.24-7.8,1.38-14.46-5.58-19.98-7.32-5.28-16.74-11.76-28.26-19.44Z"/>
        <path d="m405.18,690.74l16.38-9.36c7.68-.12,14.55.45,20.61,1.71,6.06,1.26,10.53,4.47,13.41,9.63l19.44-11.16c6.96-.12,13.23.3,18.81,1.26,5.58.96,10.05,3.27,13.41,6.93,3.36,3.66,5.04,9.69,5.04,18.09v57.78l10.44-1.44v1.44l-13.5,10.44h-2.88l-12.42-9.36v-58.86c0-9.72-1.59-16.14-4.77-19.26-3.18-3.12-7.17-4.68-11.97-4.68h-.18l-20.16,11.7c1.2,3.12,1.8,7.14,1.8,12.06v57.78l10.44-1.44v1.44l-13.32,10.44h-3.06l-12.42-9.18v-59.04c0-9.72-1.59-16.14-4.77-19.26-3.18-3.12-7.17-4.68-11.97-4.68l-18.36,10.44v71.28l10.62-1.44v1.44l-13.5,10.44h-3.06l-12.42-9.18v-77.94l-10.44-3.78v-1.26h28.8v7.02Z"/>
        <path d="m548.19,687.59c7.26-3.9,14.55-5.85,21.87-5.85,10.08,0,18.72,2.64,25.92,7.92,7.2,5.28,10.8,11.64,10.8,19.08v56.88l10.44-1.44v1.44l-13.5,10.44h-2.88l-11.7-8.1c-6.48,7.08-14.4,10.62-23.76,10.62-6.24,0-11.94-.93-17.1-2.79-5.16-1.86-9.15-5.31-11.97-10.35-2.82-5.04-3.87-12.18-3.15-21.42l25.56-14.76-25.2-25.2c2.52-7.08,7.41-12.57,14.67-16.47Zm40.23,24.57v-3.42c0-6.84-1.8-12.66-5.4-17.46-3.6-4.8-7.98-7.2-13.14-7.2-3.96,0-7.38.66-10.26,1.98-2.88,1.32-5.4,3.06-7.56,5.22-3.72,3.96-5.58,8.52-5.58,13.68s1.92,9.72,5.76,13.68l9.18,9.18,27-15.66Zm-37.08,24.84c-.48,2.04-.72,4.38-.72,7.02,0,10.08,2.25,17.52,6.75,22.32,4.5,4.8,9.75,7.2,15.75,7.2s11.1-2.94,15.3-8.82v-49.14l-37.08,21.42Z"/>
        <path d="m649.8,683.72h21.42v2.88h-21.42v68.22c0,7.08.57,11.97,1.71,14.67,1.14,2.7,3.21,4.29,6.21,4.77,3.48.48,6.81-.96,9.99-4.32,3.18-3.36,4.77-7.02,4.77-10.98h2.88c0,5.28-2.01,9.81-6.03,13.59-4.02,3.78-8.61,5.67-13.77,5.67-7.32,0-13.14-1.86-17.46-5.58-4.32-3.72-6.54-9.6-6.66-17.64v-68.4h-10.44v-2.88h10.44l18.36-18.54v18.54Z"/>
        <path d="m692.09,688.94l-10.44-3.96v-1.26h28.8v81.72l10.62-1.26v1.26l-13.5,10.44h-3.06l-12.42-9.18v-77.76Zm17.37-33.3c2.34,2.28,3.51,5.04,3.51,8.28s-1.17,6.18-3.51,8.46c-2.34,2.28-5.13,3.42-8.37,3.42s-6-1.14-8.28-3.42c-2.28-2.28-3.42-5.1-3.42-8.46s1.14-6,3.42-8.28,5.04-3.42,8.28-3.42,6.03,1.14,8.37,3.42Z"/>
        <path d="m795.24,774.89c-5.4,2.22-11.1,3.33-17.1,3.33-13.32,0-24.69-4.71-34.11-14.13-9.42-9.42-14.13-20.79-14.13-34.11s4.71-24.69,14.13-34.11,20.79-14.13,34.11-14.13c11.04,0,20.82,3.3,29.34,9.9v.18l-4.32,25.02c-5.28-21.96-13.62-32.94-25.02-32.94-9,0-16.23,4.47-21.69,13.41-5.46,8.94-8.19,19.83-8.19,32.67s2.73,23.7,8.19,32.58c5.46,8.88,12.69,13.32,21.69,13.32,5.64,0,10.92-1.11,15.84-3.33,4.92-2.22,9-5.79,12.24-10.71l2.34,1.62c-3.48,5.4-7.92,9.21-13.32,11.43Z"/>
        <path d="m88.47,953.81c-7.26,2.94-15.03,4.41-23.31,4.41-12,0-22.92-2.94-32.76-8.82-9.84-5.88-17.7-13.74-23.58-23.58-5.88-9.84-8.82-20.76-8.82-32.76s2.94-22.95,8.82-32.85c5.88-9.9,13.74-17.79,23.58-23.67,9.84-5.88,20.76-8.82,32.76-8.82,15,0,28.32,4.56,39.96,13.68h-.18l-5.4,30.6c-2.88-12.12-7.41-22.14-13.59-30.06-6.18-7.92-13.11-11.88-20.79-11.88-12.12,0-22.5,6.15-31.14,18.45-8.64,12.3-12.96,27.15-12.96,44.55s4.32,32.25,12.96,44.55c8.64,12.3,19.02,18.45,31.14,18.45,7.68,0,15.03-1.53,22.05-4.59,7.02-3.06,12.69-7.95,17.01-14.67l1.98,1.44c-4.56,7.44-10.47,12.63-17.73,15.57Z"/>
        <path d="m200.34,875.6c9.48,9.48,14.22,20.88,14.22,34.2s-4.74,24.72-14.22,34.2c-9.48,9.48-20.88,14.22-34.2,14.22s-24.72-4.74-34.2-14.22c-9.48-9.48-14.22-20.88-14.22-34.2s4.74-24.72,14.22-34.2c9.48-9.48,20.88-14.22,34.2-14.22s24.72,4.74,34.2,14.22Zm-34.2-11.7c-8.28,0-15.36,4.5-21.24,13.5-5.88,9-8.82,19.8-8.82,32.4s2.94,23.4,8.82,32.4c5.88,9,12.96,13.5,21.24,13.5s15.33-4.5,21.15-13.5c5.82-9,8.73-19.8,8.73-32.4s-2.91-23.4-8.73-32.4c-5.82-9-12.87-13.5-21.15-13.5Z"/>
        <path d="m235.26,852.02l-10.44-3.96v-1.26h28.8v98.64l10.62-1.44v1.44l-13.5,10.44h-3.06l-12.42-9.18v-94.68Zm39.42-16.92l-10.44-3.96v-1.26h28.8v115.56l10.62-1.44v1.44l-13.5,10.44h-3.06l-12.42-9.18v-111.6Z"/>
        <path d="m333.36,922.76c1.68,9.84,5.04,17.82,10.08,23.94s11.28,9.18,18.72,9.18c5.64,0,10.92-1.11,15.84-3.33,4.92-2.22,9-5.79,12.24-10.71l2.34,1.62c-3.48,5.4-7.92,9.21-13.32,11.43-5.4,2.22-11.1,3.33-17.1,3.33-13.32,0-24.69-4.71-34.11-14.13-9.42-9.42-14.13-20.79-14.13-34.11s4.71-24.69,14.13-34.11c9.42-9.42,20.79-14.13,34.11-14.13,11.04,0,20.82,3.3,29.34,9.9v.18l-3.42,19.26-54.72,31.68Zm50.58-32.76c-2.64-8.64-5.67-15.15-9.09-19.53-3.42-4.38-7.65-6.57-12.69-6.57-9,0-16.23,4.47-21.69,13.41-5.46,8.94-8.19,19.83-8.19,32.67,0,3.24.18,6.42.54,9.54l51.12-29.52Z"/>
        <path d="m468,954.89c-5.4,2.22-11.1,3.33-17.1,3.33-13.32,0-24.69-4.71-34.11-14.13-9.42-9.42-14.13-20.79-14.13-34.11s4.71-24.69,14.13-34.11c9.42-9.42,20.79-14.13,34.11-14.13,11.04,0,20.82,3.3,29.34,9.9v.18l-4.32,25.02c-5.28-21.96-13.62-32.94-25.02-32.94-9,0-16.23,4.47-21.69,13.41-5.46,8.94-8.19,19.83-8.19,32.67s2.73,23.7,8.19,32.58c5.46,8.88,12.69,13.32,21.69,13.32,5.64,0,10.92-1.11,15.84-3.33,4.92-2.22,9-5.79,12.24-10.71l2.34,1.62c-3.48,5.4-7.92,9.21-13.32,11.43Z"/>
        <path d="m517.68,863.72h21.42v2.88h-21.42v68.22c0,7.08.57,11.97,1.71,14.67,1.14,2.7,3.21,4.29,6.21,4.77,3.48.48,6.81-.96,9.99-4.32,3.18-3.36,4.77-7.02,4.77-10.98h2.88c0,5.28-2.01,9.81-6.03,13.59-4.02,3.78-8.61,5.67-13.77,5.67-7.32,0-13.14-1.86-17.46-5.58-4.32-3.72-6.54-9.6-6.66-17.64v-68.4h-10.44v-2.88h10.44l18.36-18.54v18.54Z"/>
        <path d="m559.98,868.94l-10.44-3.96v-1.26h28.8v81.72l10.62-1.26v1.26l-13.5,10.44h-3.06l-12.42-9.18v-77.76Zm17.37-33.3c2.34,2.28,3.51,5.04,3.51,8.28s-1.17,6.18-3.51,8.46c-2.34,2.28-5.13,3.42-8.37,3.42s-6-1.14-8.28-3.42c-2.28-2.28-3.42-5.1-3.42-8.46s1.14-6,3.42-8.28,5.04-3.42,8.28-3.42,6.03,1.14,8.37,3.42Z"/>
        <path d="m681.84,875.6c9.48,9.48,14.22,20.88,14.22,34.2s-4.74,24.72-14.22,34.2c-9.48,9.48-20.88,14.22-34.2,14.22s-24.72-4.74-34.2-14.22c-9.48-9.48-14.22-20.88-14.22-34.2s4.74-24.72,14.22-34.2,20.88-14.22,34.2-14.22,24.72,4.74,34.2,14.22Zm-34.2-11.7c-8.28,0-15.36,4.5-21.24,13.5-5.88,9-8.82,19.8-8.82,32.4s2.94,23.4,8.82,32.4c5.88,9,12.96,13.5,21.24,13.5s15.33-4.5,21.15-13.5c5.82-9,8.73-19.8,8.73-32.4s-2.91-23.4-8.73-32.4c-5.82-9-12.87-13.5-21.15-13.5Z"/>
        <path d="m751.5,861.56h3.24c6.96,0,13.29.42,18.99,1.26,5.7.84,10.26,3.12,13.68,6.84,3.42,3.72,5.13,9.78,5.13,18.18v57.78l10.44-1.44v1.44l-13.32,10.44h-3.06l-12.42-9.36v-58.86c0-7.2-.87-12.48-2.61-15.84-1.74-3.36-4.08-5.58-7.02-6.66-2.94-1.08-6.21-1.62-9.81-1.62h-1.26l-18.36,10.62v71.28l10.62-1.44v1.44l-13.5,10.44h-3.06l-12.42-9.36v-77.76l-10.44-3.78v-1.44h28.8v7.2l16.38-9.36Z"/>
        <path d="m829.44,901.7l-8.1-5.4c-2.28-1.8-3.99-3.75-5.13-5.85-1.14-2.1-1.71-5.01-1.71-8.73,0-5.64,3.06-10.44,9.18-14.4s13.44-5.94,21.96-5.94c5.64,0,11.49.9,17.55,2.7,6.06,1.8,11.19,4.26,15.39,7.38l-7.74,23.94c-2.16-9-5.43-16.47-9.81-22.41-4.38-5.94-9.51-9.03-15.39-9.27-6.6.24-11.28,3.66-14.04,10.26-1.44,3.72-.42,6.72,3.06,9,14.64,9.96,28.86,19.74,42.66,29.34,2.52,2.04,4.35,4.56,5.49,7.56,1.14,3,1.71,6.12,1.71,9.36,0,8.04-3.78,14.88-11.34,20.52-7.56,5.64-16.74,8.46-27.54,8.46-15.36,0-27-5.4-34.92-16.2l18.72-40.32Zm2.52,1.8l-9,19.44c-1.92,4.2-2.04,8.46-.36,12.78,2.04,5.4,5.13,10.08,9.27,14.04,4.14,3.96,8.73,6,13.77,6.12,9.24-.36,15.96-4.68,20.16-12.96,3.24-7.8,1.38-14.46-5.58-19.98-7.32-5.28-16.74-11.76-28.26-19.44Z"/>
      </g>
      <g>
        <path d="m543.34,541.08c-.8.31-1.61.56-2.42.85l-9.69,3.33c-4.46,1.5-10.21,2.98-14.72,4.36-2.46.6-7.5,1.76-9.95,2.37-3.29.86-11.63,2.37-15.04,2.98-4.61.86-10.52,1.44-15.17,2.15-4.89.4-10.36,1.02-15.26,1.27,0,0-10.2.38-10.2.38-114.95,2.38-220.37-66.72-263.13-173.43-1.18-2.65-2.66-6.7-3.61-9.45-2.08-5.37-4.59-13.7-6.23-19.26-.87-2.77-1.78-6.97-2.51-9.8-1.27-4.54-2.23-10.23-3.19-14.83-5.91-31.4-5.99-64.1-.74-95.6,17.29-101.06,87.59-183.19,184.67-216.05,129.62-43.19,270.46,14.09,334.47,134.63C647.01,66.41,559.81,8.27,461.49.8c-90.75-7-181.34,32.07-238.52,102.97-56.53,69.11-76.93,163.67-53.69,249.9,34.45,130.25,157.69,217.97,292.01,207.59,4.93-.37,10.46-1.06,15.38-1.59,4.7-.79,10.62-1.57,15.25-2.53l10.08-2.12c4.66-1.07,10.29-2.65,14.95-3.87,4.52-1.49,10.24-3.14,14.68-4.75l9.62-3.63c.8-.31,1.61-.59,2.4-.92,3.39-1.51,8.37-3.6,11.77-5.13,3.27-1.49,10.46-5.17,13.81-6.81-3.47,1.53-10.52,4.98-13.99,6.4-3.45,1.36-8.45,3.42-11.89,4.77Z"/>
        <path d="m468.77,289.1c4.89-15.11-3.39-31.32-18.5-36.21-15.11-4.89-31.32,3.39-36.21,18.5-4.89,15.11,3.39,31.32,18.5,36.21,15.11,4.89,31.32-3.39,36.21-18.5Z"/>
        <polygon points="518.58 429.54 516.02 449.39 538.77 469.07 536.16 439.1 518.58 429.54"/>
        <polygon points="591.31 204.92 611.15 207.47 630.83 184.72 600.87 187.34 591.31 204.92"/>
        <polygon points="346.54 121.8 364.12 131.36 366.68 111.51 343.93 91.83 346.54 121.8"/>
        <polygon points="291.39 355.98 271.54 353.42 251.86 376.17 281.83 373.56 291.39 355.98"/>
        <polygon points="235.43 213.82 235.43 213.82 235.43 213.82 235.43 213.82"/>
        <path d="m868.25,418.71s-.07-.02-.11-.04c-140.44-47.05-263.97-89.06-292.02-102.47,0,0,0,0,0,0h0c-11.27-6.16-21.26-12.03-30.09-17.82,3.13-17.98,1.48-35.98-4.19-52.5l28.95-30.49-41.35,5.54c-10.17-15.13-24.27-27.74-41.41-36.1.99-21.6,4.56-47.34,9.85-78.98-.29.57-.56,1.13-.85,1.7-1.54,3.09-3.05,6.11-4.54,9.06-12,23.78-22.55,43.25-32.82,59.02-18.82-3.3-37.67-1.35-54.81,4.96l-30.26-28.72,5.58,41.67c-14.29,10.07-26.19,23.7-34.19,40.13-17.11-.83-36.85-3.28-60.1-6.91-.01,0,0,0-.01,0-6.31-.78-50.46-12.95-50.46-12.95,0,0,0,0,0,0,0,0,0,0,0,0,12.16,4.12,24.75,8.81,37.69,14.17,5.22,2.17,10.32,4.36,15.3,6.59,19.03,9.82,35.03,18.76,48.38,27.52-3.13,17.98-1.48,35.98,4.19,52.49l-28.95,30.49,41.35-5.54c10.17,15.13,24.27,27.74,41.4,36.09-.85,18.72-3.65,40.54-7.82,66.61-.56,3.5-1.15,7.08-1.75,10.74-.09.55-.18,1.08-.27,1.63,14.26-28.73,26.45-51.68,38.31-69.77,18.78,3.27,37.6,1.32,54.71-4.98l30.26,28.72-5.58-41.67c14.27-10.06,26.17-23.68,34.17-40.08,9.16.42,19.06,1.3,29.85,2.58,36.07,5.23,156.46,43.91,301.47,89.24.04.01.07.02.11.04-.02,0-.04-.01-.05-.02.02,0,.04.01.05.02Zm-336.02-130.05c-30.99-23.66-43.4-47.96-44.41-86.94,30.26,17.88,47.66,51.95,44.41,86.94Zm-136.62-23.25c8.19-25.3,35.34-39.17,60.64-30.97s39.17,35.34,30.97,60.64c-8.19,25.3-35.34,39.17-60.64,30.97-25.3-8.19-39.17-35.34-30.97-60.64Zm54.4-75.97c-23.66,31.24-47.85,43.64-87.17,44.5,17.89-30.37,52.08-47.83,87.17-44.5Zm-99.41,82.39c30.97,23.66,43.39,47.96,44.4,86.92-30.25-17.88-47.65-51.94-44.4-86.92Zm82.4,99.23c23.66-30.98,47.96-43.4,86.93-44.41-17.88,30.25-51.94,47.66-86.93,44.41Z"/>
        <path d="m267.95,450.39c-1.37-1.38-2.7-2.79-4.03-4.2-46.08-50.32-71.01-119.8-61.93-194.07,9.91-83.6,65.17-157.45,142.06-191.46l4.06-1.83,4.14-1.64c4.73-1.98,11.81-4.45,16.74-6.06,4.1-1.3,8.66-2.52,12.83-3.71,4.03-.89,9-2.19,13.03-2.94,11.46-2.27,23.69-3.73,35.32-4.38,8.12-.33,16.36-.3,24.49,0,1.53.13,9.4.69,11.11.83,105.68,10.11,192.56,88.14,214.68,191.87.72,4.08,1.78,9.16,2.38,13.23l1.2,8.88c.09.74.22,1.48.29,2.22.25,3.23.7,7.92.94,11.17.21,3.13.36,10.19.5,13.45-.11-3.27-.08-10.25-.27-13.46-.14-2.22-.47-6.74-.61-8.96-.16-2.99-1.08-10.35-1.46-13.39-.32-2.56-1-6.31-1.45-8.87-23.04-127.12-137.96-209.14-258.54-200.17-98.78,6.7-189.51,73.58-219.18,177.74-36.45,129.95,38.79,265.17,168.65,302.2,95.13,26.89,197.4-5.89,258.42-83.8-92.17,113.11-260.99,121.61-363.36,17.36Z"/>
      </g>
    </g>
  </g>
</svg>